<svg version="1.1" id="Layer_1" xmlns="http://www.w3.org/2000/svg" xmlns:xlink="http://www.w3.org/1999/xlink" x="0px" y="0px"
	 width="100%" viewBox="0 0 1080 1080" enable-background="new 0 0 1080 1080" xml:space="preserve">
<path fill="#FFFFFF" opacity="1.000000" stroke="none" 
	d="
M603.000000,1081.000000 
	C402.023132,1081.000000 201.546280,1081.000000 1.034705,1081.000000 
	C1.034705,721.064697 1.034705,361.129364 1.034705,1.097018 
	C360.893768,1.097018 720.787598,1.097018 1080.840698,1.097018 
	C1080.840698,360.999939 1080.840698,720.999939 1080.840698,1081.000000 
	C921.795593,1081.000000 762.647766,1081.000000 603.000000,1081.000000 
M416.162537,271.904266 
	C388.184692,283.300415 361.765747,297.555786 337.217529,315.190491 
	C317.785309,329.150024 299.966339,344.836792 286.595398,364.924744 
	C282.762146,370.683594 279.908875,377.094696 276.132782,384.082977 
	C278.559814,383.904266 279.390991,383.936432 280.180786,383.770996 
	C294.115784,380.852234 308.044891,377.905334 321.976959,374.972595 
	C345.630188,369.993622 369.284607,365.020264 393.174194,360.867035 
	C393.460785,363.508789 393.848694,366.144073 394.018402,368.793335 
	C395.836151,397.167908 402.041901,424.578918 412.817596,450.852142 
	C422.053009,473.369812 431.901337,495.636108 441.110046,518.629517 
	C440.953857,518.922302 440.819305,519.229187 440.638397,519.505798 
	C399.985596,581.667786 359.333313,643.830078 318.643982,705.968140 
	C317.904724,707.097107 316.722504,707.935913 315.387970,708.117249 
	C320.034851,684.113342 328.263855,661.540710 340.679688,640.340515 
	C345.726776,631.722473 349.443512,622.095459 352.295166,612.490967 
	C354.789124,604.091370 347.415222,596.683289 338.756805,598.334412 
	C333.858429,599.268433 328.675232,601.263062 324.731049,604.247803 
	C289.457001,630.940857 263.517487,664.536194 250.908661,707.416443 
	C240.852585,741.615234 239.390274,775.223877 259.792999,807.297302 
	C257.644073,812.325439 255.215881,817.255127 253.401474,822.401184 
	C248.934937,835.069580 253.605759,843.614075 266.832245,845.581726 
	C285.355408,848.337341 303.814331,847.421936 322.727234,842.112061 
	C346.958008,847.039429 371.247528,847.439453 395.659607,843.411011 
	C430.096375,837.728149 461.278534,823.513733 491.478180,806.855774 
	C501.947479,801.080872 512.210083,794.672607 519.599731,784.901428 
	C521.791504,782.003357 523.020081,778.376831 524.690002,775.084167 
	C524.294006,774.960999 523.897949,774.837830 523.501892,774.714722 
	C521.527466,775.574829 519.553101,776.434937 517.540100,777.311829 
	C525.398804,768.070312 533.515686,759.466431 540.562317,750.060730 
	C560.998352,722.783508 570.930298,692.113342 569.319092,657.817383 
	C568.579956,642.083984 565.204468,626.917236 561.884705,611.876282 
	C583.646301,613.443237 605.079712,611.026062 626.291931,606.347229 
	C667.195740,597.325012 705.614075,581.675537 742.369629,561.887878 
	C788.838379,536.871033 830.476990,505.760529 863.416504,463.963867 
	C886.664734,434.464447 905.203613,402.794952 910.658325,364.737305 
	C913.949219,341.777100 910.998596,320.227356 895.911133,302.121368 
	C887.364807,291.865173 877.584045,282.144653 866.803284,274.329224 
	C821.708313,241.638123 769.972900,228.496933 714.833618,224.473663 
	C708.196411,208.106049 696.406799,196.606674 680.719849,189.042343 
	C672.066833,184.869843 663.242065,180.995148 654.289001,177.515335 
	C633.544922,169.452606 612.232422,164.136185 589.714539,164.579300 
	C558.926147,165.185150 531.021179,175.525803 504.874207,190.581833 
	C469.522705,210.938004 440.320770,238.322678 416.162537,271.904266 
z"/>
<path fill="#070745" opacity="1.000000" stroke="none" 
	d="
M560.959534,611.866333 
	C565.204468,626.917236 568.579956,642.083984 569.319092,657.817383 
	C570.930298,692.113342 560.998352,722.783508 540.562317,750.060730 
	C533.515686,759.466431 525.398804,768.070312 517.540100,777.311829 
	C519.553101,776.434937 521.527466,775.574829 523.501892,774.714722 
	C523.897949,774.837830 524.294006,774.960999 524.690002,775.084167 
	C523.020081,778.376831 521.791504,782.003357 519.599731,784.901428 
	C512.210083,794.672607 501.947479,801.080872 491.478180,806.855774 
	C461.278534,823.513733 430.096375,837.728149 395.659607,843.411011 
	C371.247528,847.439453 346.958008,847.039429 321.978577,841.955322 
	C297.579254,835.812622 275.804230,826.569702 260.182770,806.641724 
	C239.390274,775.223877 240.852585,741.615234 250.908661,707.416443 
	C263.517487,664.536194 289.457001,630.940857 324.731049,604.247803 
	C328.675232,601.263062 333.858429,599.268433 338.756805,598.334412 
	C347.415222,596.683289 354.789124,604.091370 352.295166,612.490967 
	C349.443512,622.095459 345.726776,631.722473 340.679688,640.340515 
	C328.263855,661.540710 320.034851,684.113342 315.612579,708.541382 
	C315.837189,708.965576 315.912933,708.890381 315.565277,708.940125 
	C315.166687,709.688660 315.115753,710.387390 314.880005,711.440063 
	C314.277557,714.075378 313.814758,716.349670 313.449585,718.639526 
	C310.794861,735.286987 309.474609,751.918884 313.982635,768.495728 
	C319.912659,790.301514 333.643036,802.215027 354.344055,803.366455 
	C363.283752,802.867432 372.212677,803.445496 380.400208,801.253784 
	C430.597748,787.816406 466.314087,756.869568 486.761383,709.237732 
	C495.821838,688.131592 499.958038,665.953430 489.518097,643.575562 
	C489.094910,642.668457 489.782990,641.242920 489.971954,640.376587 
	C490.232269,641.009766 490.473969,641.325256 490.715637,641.640808 
	C490.778900,641.349915 490.991364,640.926392 490.874878,640.795410 
	C490.622620,640.511719 490.201965,640.377808 490.213226,639.874146 
	C488.800171,635.041870 487.010620,630.523376 485.251068,625.993286 
	C482.636078,619.260620 480.042236,612.519836 477.373474,605.408936 
	C465.364563,576.028137 453.421600,547.020813 441.478607,518.013550 
	C431.901337,495.636108 422.053009,473.369812 412.817596,450.852142 
	C402.041901,424.578918 395.836151,397.167908 394.018402,368.793335 
	C393.848694,366.144073 393.460785,363.508789 393.121033,359.988129 
	C393.057770,350.631805 392.572449,342.118591 393.206696,333.689667 
	C393.621094,328.182465 395.501434,322.749847 397.113586,317.400879 
	C397.408966,316.420868 399.571259,316.003540 400.871796,315.326477 
	C401.255646,315.792511 401.639496,316.258575 402.023346,316.724609 
	C403.557800,306.198090 410.639465,297.559021 411.221191,286.494568 
	C411.483337,281.508606 414.913879,276.689240 416.906860,271.794281 
	C440.320770,238.322678 469.522705,210.938004 504.874207,190.581833 
	C531.021179,175.525803 558.926147,165.185150 589.714539,164.579300 
	C612.232422,164.136185 633.544922,169.452606 654.289001,177.515335 
	C663.242065,180.995148 672.066833,184.869843 680.719849,189.042343 
	C696.406799,196.606674 708.196411,208.106049 715.059204,225.128357 
	C716.599731,228.997452 717.593079,232.393280 719.286377,235.394211 
	C725.880371,247.080399 723.931091,258.402802 717.938293,269.441101 
	C714.316284,276.112640 710.121155,282.473022 705.937805,289.222229 
	C680.812988,325.572479 652.005676,358.087524 617.491211,385.791504 
	C615.728333,386.733612 614.410706,387.946564 612.872559,388.384033 
	C607.193298,389.999298 601.490295,392.264618 595.703735,392.578003 
	C588.862366,392.948486 586.708435,388.234558 590.083435,382.241882 
	C590.569702,381.378448 591.217651,380.607758 591.752747,379.769867 
	C596.555054,372.249329 601.508972,364.819550 606.104980,357.174744 
	C611.999207,347.370789 617.459900,337.304718 623.426086,327.546448 
	C625.074280,324.850647 627.855774,322.847687 630.117249,320.526855 
	C630.466370,320.859650 630.815430,321.192444 631.164551,321.525238 
	C629.922546,324.188721 628.680603,326.852234 627.267517,329.774719 
	C627.208496,330.395386 627.320618,330.757050 627.432678,331.118713 
	C627.689270,330.814484 627.945801,330.510254 628.493713,330.032318 
	C635.365662,319.263184 641.946228,308.667755 648.712524,297.809326 
	C650.676758,294.022766 652.455322,290.499237 654.506958,286.778259 
	C658.670532,276.872253 663.111084,267.340485 666.303284,257.407532 
	C669.794495,246.544281 671.352783,235.303482 666.628174,223.830002 
	C662.892273,216.421585 657.134338,212.032959 649.510071,210.006760 
	C639.633301,207.381943 629.716614,207.922287 619.862244,209.961655 
	C604.116821,213.220154 588.827332,217.902527 573.720154,225.336838 
	C575.096863,225.699539 575.871582,225.903625 577.550293,226.345871 
	C573.909790,228.470566 571.002319,230.167450 567.729858,231.900665 
	C544.232483,243.741226 524.269165,259.640442 507.475555,279.358002 
	C494.453491,294.647339 483.755859,311.419067 477.967865,331.340363 
	C473.912079,342.051575 472.671478,352.904907 472.178864,363.843475 
	C471.425293,380.577728 473.523682,397.071259 478.140594,413.108429 
	C481.475708,424.693146 485.906403,435.962433 489.862274,447.733002 
	C500.880005,472.373657 511.884003,496.653717 522.887939,520.933777 
	C522.612305,521.088501 522.336670,521.243225 522.061035,521.397949 
	C513.485535,506.169342 504.910034,490.940704 496.260895,475.416565 
	C495.653351,474.753143 495.119476,474.385284 493.645020,473.369324 
	C494.641571,475.104614 495.035889,475.791229 495.515930,476.844788 
	C502.069305,495.659241 507.232819,514.677124 517.656677,531.469238 
	C533.746033,557.388245 550.626099,582.856689 560.959534,611.866333 
M271.790314,685.417419 
	C272.575378,683.406067 273.381989,681.402771 274.139282,679.381042 
	C274.873871,677.419922 275.557770,675.439880 276.263916,673.468140 
	C275.801544,673.387268 275.339172,673.306335 274.876801,673.225464 
	C253.686325,713.258850 243.175003,754.212036 264.610992,797.842407 
	C264.759735,796.283813 264.318970,794.761475 264.007080,793.213196 
	C262.303589,784.756897 259.895050,776.364075 259.084045,767.820801 
	C256.407166,739.622498 261.719208,712.501648 271.790314,685.417419 
M567.824280,228.197418 
	C567.131042,228.633942 566.437866,229.070465 565.744690,229.507004 
	C565.843323,229.664505 565.941956,229.822021 566.040588,229.979538 
	C568.239380,228.889618 570.438171,227.799683 572.636963,226.709763 
	C572.533447,226.499832 572.429993,226.289886 572.326538,226.079941 
	C571.045166,226.717926 569.763733,227.355911 567.824280,228.197418 
M625.776245,332.815338 
	C626.106262,332.621368 626.436279,332.427368 626.766296,332.233398 
	C626.321045,332.253540 625.875732,332.273712 625.776245,332.815338 
z"/>
<path fill="#F9447F" opacity="1.000000" stroke="none" 
	d="
M706.183594,288.973236 
	C710.121155,282.473022 714.316284,276.112640 717.938293,269.441101 
	C723.931091,258.402802 725.880371,247.080399 719.286377,235.394211 
	C717.593079,232.393280 716.599731,228.997452 715.247131,225.442627 
	C769.972900,228.496933 821.708313,241.638123 866.803284,274.329224 
	C877.584045,282.144653 887.364807,291.865173 895.911133,302.121368 
	C910.998596,320.227356 913.949219,341.777100 910.658325,364.737305 
	C905.203613,402.794952 886.664734,434.464447 863.416504,463.963867 
	C830.476990,505.760529 788.838379,536.871033 742.369629,561.887878 
	C705.614075,581.675537 667.195740,597.325012 626.291931,606.347229 
	C605.079712,611.026062 583.646301,613.443237 561.422119,611.871338 
	C550.626099,582.856689 533.746033,557.388245 517.656677,531.469238 
	C507.232819,514.677124 502.069305,495.659241 495.745850,476.657898 
	C496.038208,475.973358 496.186401,475.842712 496.334564,475.712097 
	C504.910034,490.940704 513.485535,506.169342 522.061035,521.397949 
	C522.336670,521.243225 522.612305,521.088501 522.887939,520.933777 
	C511.884003,496.653717 500.880005,472.373657 490.095764,447.455566 
	C520.945801,404.015625 551.347107,361.046448 582.381653,318.539642 
	C589.378052,308.956970 598.657349,300.507629 611.299377,299.240234 
	C623.623657,298.004669 636.111023,298.395538 648.526794,298.072327 
	C641.946228,308.667755 635.365662,319.263184 628.308960,329.852905 
	C627.701477,329.736725 627.570068,329.626190 627.438599,329.515686 
	C628.680603,326.852234 629.922546,324.188721 631.164551,321.525238 
	C630.815430,321.192444 630.466370,320.859650 630.117249,320.526855 
	C627.855774,322.847687 625.074280,324.850647 623.426086,327.546448 
	C617.459900,337.304718 611.999207,347.370789 606.104980,357.174744 
	C601.508972,364.819550 596.555054,372.249329 591.752747,379.769867 
	C591.217651,380.607758 590.569702,381.378448 590.083435,382.241882 
	C586.708435,388.234558 588.862366,392.948486 595.703735,392.578003 
	C601.490295,392.264618 607.193298,389.999298 612.872559,388.384033 
	C614.410706,387.946564 615.728333,386.733612 617.402710,386.134613 
	C587.256104,433.480652 556.854065,480.568695 526.778503,527.150940 
	C528.646790,535.843811 535.305542,537.114136 542.227905,537.968262 
	C544.704712,538.273926 547.179382,538.668518 549.666931,538.805359 
	C578.257874,540.379028 606.106750,536.543762 633.168396,527.162109 
	C690.051086,507.442322 739.434448,476.051208 780.617554,432.029114 
	C791.900940,419.967865 802.250366,407.147064 809.809631,392.307129 
	C818.149597,375.934601 818.483887,359.402344 810.544495,342.854736 
	C801.209595,323.398651 784.796631,311.996185 765.509277,304.035889 
	C746.461548,296.174500 726.430237,292.138092 706.183594,288.973236 
M523.993347,522.163269 
	C523.816772,522.601257 523.640198,523.039246 523.695557,524.027100 
	C524.013794,524.236023 524.332031,524.444885 524.650269,524.653809 
	C524.506104,524.029480 524.362000,523.405212 523.993347,522.163269 
z"/>
<path fill="#F9447F" opacity="1.000000" stroke="none" 
	d="
M441.294312,518.321533 
	C453.421600,547.020813 465.364563,576.028137 477.207428,605.749023 
	C436.068390,672.029480 395.029480,737.596436 353.990570,803.163330 
	C333.643036,802.215027 319.912659,790.301514 313.982635,768.495728 
	C309.474609,751.918884 310.794861,735.286987 313.449585,718.639526 
	C313.814758,716.349670 314.277557,714.075378 315.158630,711.264893 
	C315.719025,710.120728 315.815979,709.505554 315.912903,708.890381 
	C315.912933,708.890381 315.837189,708.965576 315.792053,708.937866 
	C316.722504,707.935913 317.904724,707.097107 318.643982,705.968140 
	C359.333313,643.830078 399.985596,581.667786 440.638397,519.505798 
	C440.819305,519.229187 440.953857,518.922302 441.294312,518.321533 
z"/>
<path fill="#F94580" opacity="1.000000" stroke="none" 
	d="
M416.534698,271.849274 
	C414.913879,276.689240 411.483337,281.508606 411.221191,286.494568 
	C410.639465,297.559021 403.557800,306.198090 402.023346,316.724609 
	C401.639496,316.258575 401.255646,315.792511 400.871796,315.326477 
	C399.571259,316.003540 397.408966,316.420868 397.113586,317.400879 
	C395.501434,322.749847 393.621094,328.182465 393.206696,333.689667 
	C392.572449,342.118591 393.057770,350.631805 393.003204,359.576904 
	C369.284607,365.020264 345.630188,369.993622 321.976959,374.972595 
	C308.044891,377.905334 294.115784,380.852234 280.180786,383.770996 
	C279.390991,383.936432 278.559814,383.904266 276.132782,384.082977 
	C279.908875,377.094696 282.762146,370.683594 286.595398,364.924744 
	C299.966339,344.836792 317.785309,329.150024 337.217529,315.190491 
	C361.765747,297.555786 388.184692,283.300415 416.534698,271.849274 
z"/>
<path fill="#F94580" opacity="1.000000" stroke="none" 
	d="
M259.987885,806.969482 
	C275.804230,826.569702 297.579254,835.812622 321.571716,841.958862 
	C303.814331,847.421936 285.355408,848.337341 266.832245,845.581726 
	C253.605759,843.614075 248.934937,835.069580 253.401474,822.401184 
	C255.215881,817.255127 257.644073,812.325439 259.987885,806.969482 
z"/>
<path fill="#FFFFFF" opacity="1.000000" stroke="none" 
	d="
M705.937805,289.222229 
	C726.430237,292.138092 746.461548,296.174500 765.509277,304.035889 
	C784.796631,311.996185 801.209595,323.398651 810.544495,342.854736 
	C818.483887,359.402344 818.149597,375.934601 809.809631,392.307129 
	C802.250366,407.147064 791.900940,419.967865 780.617554,432.029114 
	C739.434448,476.051208 690.051086,507.442322 633.168396,527.162109 
	C606.106750,536.543762 578.257874,540.379028 549.666931,538.805359 
	C547.179382,538.668518 544.704712,538.273926 542.227905,537.968262 
	C535.305542,537.114136 528.646790,535.843811 526.778503,527.150940 
	C556.854065,480.568695 587.256104,433.480652 617.746765,386.049500 
	C652.005676,358.087524 680.812988,325.572479 705.937805,289.222229 
z"/>
<path fill="#FEFEFE" opacity="1.000000" stroke="none" 
	d="
M354.344055,803.366455 
	C395.029480,737.596436 436.068390,672.029480 477.273346,606.122559 
	C480.042236,612.519836 482.636078,619.260620 485.251068,625.993286 
	C487.010620,630.523376 488.800171,635.041870 490.236755,639.841309 
	C489.897186,640.117065 489.953278,640.058960 489.953308,640.058960 
	C489.782990,641.242920 489.094910,642.668457 489.518097,643.575562 
	C499.958038,665.953430 495.821838,688.131592 486.761383,709.237732 
	C466.314087,756.869568 430.597748,787.816406 380.400208,801.253784 
	C372.212677,803.445496 363.283752,802.867432 354.344055,803.366455 
z"/>
<path fill="#F94580" opacity="1.000000" stroke="none" 
	d="
M478.157654,331.001892 
	C483.755859,311.419067 494.453491,294.647339 507.475555,279.358002 
	C524.269165,259.640442 544.232483,243.741226 568.142822,231.879852 
	C599.569824,229.450104 630.218994,227.077499 661.046692,225.112793 
	C661.656738,232.741867 662.088257,239.963028 662.550110,247.691025 
	C663.415894,243.501266 664.560791,239.819321 664.842896,236.072433 
	C665.124878,232.326660 664.543762,228.515915 664.724854,224.582672 
	C665.651245,224.343536 666.193787,224.255371 666.736267,224.167175 
	C671.352783,235.303482 669.794495,246.544281 666.303284,257.407532 
	C663.111084,267.340485 658.670532,276.872253 654.027344,286.735718 
	C649.446411,286.990601 645.602722,286.903503 641.792542,287.220215 
	C612.856262,289.625549 584.414368,294.967712 556.795837,303.785950 
	C530.379578,312.220398 504.354614,321.880524 478.157654,331.001892 
z"/>
<path fill="#FFFFFF" opacity="1.000000" stroke="none" 
	d="
M477.967865,331.340363 
	C504.354614,321.880524 530.379578,312.220398 556.795837,303.785950 
	C584.414368,294.967712 612.856262,289.625549 641.792542,287.220215 
	C645.602722,286.903503 649.446411,286.990601 653.754211,286.933167 
	C652.455322,290.499237 650.676758,294.022766 648.712524,297.809326 
	C636.111023,298.395538 623.623657,298.004669 611.299377,299.240234 
	C598.657349,300.507629 589.378052,308.956970 582.381653,318.539642 
	C551.347107,361.046448 520.945801,404.015625 490.081970,447.094971 
	C485.906403,435.962433 481.475708,424.693146 478.140594,413.108429 
	C473.523682,397.071259 471.425293,380.577728 472.178864,363.843475 
	C472.671478,352.904907 473.912079,342.051575 477.967865,331.340363 
z"/>
<path fill="#FEFEFE" opacity="1.000000" stroke="none" 
	d="
M660.868225,224.704895 
	C630.218994,227.077499 599.569824,229.450104 568.507690,231.843536 
	C571.002319,230.167450 573.909790,228.470566 577.550293,226.345871 
	C575.871582,225.903625 575.096863,225.699539 573.720154,225.336838 
	C588.827332,217.902527 604.116821,213.220154 619.862244,209.961655 
	C629.716614,207.922287 639.633301,207.381943 649.510071,210.006760 
	C657.134338,212.032959 662.892273,216.421585 666.628174,223.830017 
	C666.193787,224.255371 665.651245,224.343536 664.582703,224.277344 
	C659.447815,211.708252 643.500977,208.499634 628.966309,211.594299 
	C634.856567,212.073837 641.184509,212.077347 647.296753,213.227432 
	C653.685852,214.429596 659.131836,217.592590 660.868225,224.704895 
M585.170349,223.547806 
	C585.704102,223.199783 586.237854,222.851761 586.771606,222.503738 
	C586.672485,222.271545 586.573364,222.039352 586.474243,221.807159 
	C585.522095,222.053879 584.569946,222.300598 583.059143,222.645828 
	C582.540833,222.868317 582.022522,223.090805 580.869019,223.420547 
	C580.103882,223.784042 579.338806,224.147522 577.772217,224.738785 
	C577.517944,225.284500 577.263672,225.830215 577.009399,226.375916 
	C577.830322,226.176956 578.651245,225.977997 580.125305,225.694458 
	C580.899597,225.299225 581.673889,224.903992 582.989685,224.388550 
	C583.491394,224.158585 583.993042,223.928635 585.170349,223.547806 
z"/>
<path fill="#FEFEFE" opacity="1.000000" stroke="none" 
	d="
M271.617493,685.764160 
	C261.719208,712.501648 256.407166,739.622498 259.084045,767.820801 
	C259.895050,776.364075 262.303589,784.756897 264.007080,793.213196 
	C264.318970,794.761475 264.759735,796.283813 264.610992,797.842407 
	C243.175003,754.212036 253.686325,713.258850 274.876801,673.225464 
	C275.339172,673.306335 275.801544,673.387268 276.263916,673.468140 
	C275.557770,675.439880 274.873871,677.419922 274.139282,679.381042 
	C273.381989,681.402771 272.575378,683.406067 271.617493,685.764160 
z"/>
<path fill="#FEFEFE" opacity="1.000000" stroke="none" 
	d="
M568.153320,228.095657 
	C569.763733,227.355911 571.045166,226.717926 572.326538,226.079941 
	C572.429993,226.289886 572.533447,226.499832 572.636963,226.709763 
	C570.438171,227.799683 568.239380,228.889618 566.040588,229.979538 
	C565.941956,229.822021 565.843323,229.664505 565.744690,229.507004 
	C566.437866,229.070465 567.131042,228.633942 568.153320,228.095657 
z"/>
<path fill="#F9447F" opacity="1.000000" stroke="none" 
	d="
M495.660126,476.290955 
	C495.035889,475.791229 494.641571,475.104614 493.645020,473.369324 
	C495.119476,474.385284 495.653351,474.753143 496.260895,475.416565 
	C496.186401,475.842712 496.038208,475.973358 495.660126,476.290955 
z"/>
<path fill="#F9447F" opacity="1.000000" stroke="none" 
	d="
M625.603394,332.554626 
	C625.875732,332.273712 626.321045,332.253540 626.766296,332.233398 
	C626.436279,332.427368 626.106262,332.621368 625.603394,332.554626 
z"/>
<path fill="#FEFEFE" opacity="1.000000" stroke="none" 
	d="
M489.873657,640.149902 
	C490.201965,640.377808 490.622620,640.511719 490.874878,640.795410 
	C490.991364,640.926392 490.778900,641.349915 490.715637,641.640808 
	C490.473969,641.325256 490.232269,641.009766 489.971924,640.376587 
	C489.953278,640.058960 489.897186,640.117065 489.873657,640.149902 
z"/>
<path fill="#FFFFFF" opacity="1.000000" stroke="none" 
	d="
M315.565247,708.940125 
	C315.815979,709.505554 315.719025,710.120728 315.343445,710.911011 
	C315.115753,710.387390 315.166687,709.688660 315.565247,708.940125 
z"/>
<path fill="#F9447F" opacity="1.000000" stroke="none" 
	d="
M628.017578,330.026611 
	C627.945801,330.510254 627.689270,330.814484 627.432678,331.118713 
	C627.320618,330.757050 627.208496,330.395386 627.267456,329.774719 
	C627.570068,329.626190 627.701477,329.736725 628.017578,330.026611 
z"/>
<path fill="#070745" opacity="1.000000" stroke="none" 
	d="
M524.217834,522.780884 
	C524.362000,523.405212 524.506104,524.029480 524.650269,524.653809 
	C524.332031,524.444885 524.013794,524.236023 523.773071,523.583496 
	C523.973022,523.020203 524.095459,522.900574 524.217834,522.780884 
z"/>
<path fill="#070745" opacity="1.000000" stroke="none" 
	d="
M523.657104,523.308533 
	C523.640198,523.039246 523.816772,522.601257 524.105591,522.472046 
	C524.095459,522.900574 523.973022,523.020203 523.657104,523.308533 
z"/>
<path fill="#070745" opacity="1.000000" stroke="none" 
	d="
M661.046692,225.112793 
	C659.131836,217.592590 653.685852,214.429596 647.296753,213.227432 
	C641.184509,212.077347 634.856567,212.073837 628.966309,211.594299 
	C643.500977,208.499634 659.447815,211.708252 664.198853,224.428314 
	C664.543762,228.515915 665.124878,232.326660 664.842896,236.072433 
	C664.560791,239.819321 663.415894,243.501266 662.550110,247.691025 
	C662.088257,239.963028 661.656738,232.741867 661.046692,225.112793 
z"/>
<path fill="#070745" opacity="1.000000" stroke="none" 
	d="
M582.448181,224.508759 
	C581.673889,224.903992 580.899597,225.299225 579.584229,225.412628 
	C578.886658,224.924210 578.730164,224.717621 578.573669,224.511017 
	C579.338806,224.147522 580.103882,223.784042 581.412720,223.673584 
	C582.120361,224.120651 582.284302,224.314713 582.448181,224.508759 
z"/>
<path fill="#070745" opacity="1.000000" stroke="none" 
	d="
M583.617737,222.547302 
	C584.569946,222.300598 585.522095,222.053879 586.474243,221.807159 
	C586.573364,222.039352 586.672485,222.271545 586.771606,222.503738 
	C586.237854,222.851761 585.704102,223.199783 584.622803,223.327698 
	C583.922852,222.920837 583.770325,222.734070 583.617737,222.547302 
z"/>
<path fill="#070745" opacity="1.000000" stroke="none" 
	d="
M579.257629,225.454926 
	C578.651245,225.977997 577.830322,226.176956 577.009399,226.375916 
	C577.263672,225.830215 577.517944,225.284500 578.172974,224.624908 
	C578.730164,224.717621 578.886658,224.924210 579.257629,225.454926 
z"/>
<path fill="#070745" opacity="1.000000" stroke="none" 
	d="
M581.730347,223.619949 
	C582.022522,223.090805 582.540833,222.868317 583.338440,222.596558 
	C583.770325,222.734070 583.922852,222.920837 584.285034,223.403137 
	C583.993042,223.928635 583.491394,224.158585 582.718933,224.448654 
	C582.284302,224.314713 582.120361,224.120651 581.730347,223.619949 
z"/>
</svg>